<svg width="13" height="13" viewBox="0 0 13 13" fill="none" xmlns="http://www.w3.org/2000/svg">
<path d="M1.47394 12.905L6.50021 7.87909L11.5261 12.905C11.6528 13.0317 11.8588 13.0317 11.9856 12.905L12.905 11.9856C13.0317 11.8588 13.0317 11.6528 12.905 11.5261L7.87909 6.50021L12.905 1.47434C13.0317 1.34758 13.0317 1.14159 12.905 1.01487L11.9856 0.0954658C11.8588 -0.0312533 11.6528 -0.0312533 11.5261 0.0954658L6.50021 5.12134L1.47434 0.095069C1.34758 -0.0316897 1.14159 -0.0316897 1.01487 0.095069L0.095069 1.01444C-0.0316897 1.1412 -0.0316897 1.34718 0.095069 1.47394L5.12134 6.50021L0.095069 11.5261C-0.0316897 11.6528 -0.0316897 11.8588 0.095069 11.9856L1.01444 12.905C1.1412 13.0317 1.34718 13.0317 1.47394 12.905Z" fill="#6B7999"/>
</svg>
